<svg xmlns="http://www.w3.org/2000/svg" viewBox="0 0 105.63 105.75"><defs><style>.a,.b{fill:#abadb0;}.a{fill-rule:evenodd;}</style></defs><title>1</title><path class="a" d="M896.91,398.92l2.57,6.74,2.35-4.12,4.66.42-3.09-5.14a10,10,0,0,1-6.49,2.1ZM869,378.07H881.6v3.09H869v-3.09Zm0-5.52h24.61v3.09H869v-3.09Zm0-5.52h24.61v3.09H869V367Zm28.22,17.41a4.51,4.51,0,1,1-4.51,4.5,4.51,4.51,0,0,1,4.51-4.5Zm0-4.25a8.76,8.76,0,1,1-8.75,8.75,8.75,8.75,0,0,1,8.75-8.75Zm0,2.75a6,6,0,1,1-6,6,6,6,0,0,1,6-6Zm-37-22.48v32.18h0a1.54,1.54,0,0,0,1.54,1.54h27.22a9.69,9.69,0,0,1-1.25-3.08H863.24V362h37.43v17.59a9.58,9.58,0,0,1,3.08,1.75V360.46h0a1.54,1.54,0,0,0-1.54-1.54H861.7a1.54,1.54,0,0,0-1.54,1.54Zm43.76,35.91,3.89,3.18.73-4.62,4.21-1.48-5.57-3.71a9.89,9.89,0,0,1-2.43,5.8,9.29,9.29,0,0,1-.83.83Z" transform="translate(-829.74 -325.97)"/><polygon class="b" points="81.6 24.31 85.75 18.47 80.07 22.84 81.6 24.31"/><path class="b" d="M860.66,341.07a1.47,1.47,0,0,0-.31-1l-1.1-1.79a1.44,1.44,0,0,0-.78-.74,1.1,1.1,0,0,0-.83.18l-.88.55,2.48,4,.88-.55A1.07,1.07,0,0,0,860.66,341.07Z" transform="translate(-829.74 -325.97)"/><path class="b" d="M888.57,332.71l-.82-.07-.61,6.85.82.07a1,1,0,0,0,.83-.25,1.6,1.6,0,0,0,.39-1l.36-4.09a1.55,1.55,0,0,0-.19-1.09A1.08,1.08,0,0,0,888.57,332.71Z" transform="translate(-829.74 -325.97)"/><path class="b" d="M884,332.61a1.6,1.6,0,0,0-.39,1l-.36,4.08a1.61,1.61,0,0,0,.2,1.11,1,1,0,0,0,.77.39l.82.07.61-6.85-.82-.08A1,1,0,0,0,884,332.61Z" transform="translate(-829.74 -325.97)"/><path class="b" d="M882.55,326a52.93,52.93,0,0,0-52.8,50.17h19a33.87,33.87,0,0,1,67.52,0h19.05A53,53,0,0,0,882.55,326Zm-28.78,31.34a3.15,3.15,0,0,1-2.19,1.41,3.74,3.74,0,0,1-2.59-.9l-5.83-4.36a3.69,3.69,0,0,1-1.59-2.22,3.74,3.74,0,0,1,2.93-3.93,3.74,3.74,0,0,1,2.59.9l1.09.81-1.25,1.67-1.2-.9a1.51,1.51,0,0,0-1-.39,1.27,1.27,0,0,0-1,1.33,1.52,1.52,0,0,0,.67.89l6.06,4.53a1.42,1.42,0,0,0,1,.38,1.1,1.1,0,0,0,.74-.48,1.17,1.17,0,0,0,.26-.85,1.46,1.46,0,0,0-.67-.88l-1.6-1.2,1.25-1.66,1.49,1.11a3.7,3.7,0,0,1,1.59,2.23A3.14,3.14,0,0,1,853.77,357.31Zm2.36-3.23-9.43-10.36,4.44-4,1.35,1.48-2.82,2.56,2.63,2.88,2.23-2,1.35,1.48-2.23,2,2.76,3,2.81-2.56,1.34,1.48Zm5-4.48-7.33-11.93L856.6,336a3.17,3.17,0,0,1,2.56-.54,3.65,3.65,0,0,1,2,1.77l.95,1.55a3.62,3.62,0,0,1,.66,2.62,3.19,3.19,0,0,1-1.64,2.05l-.89.54,2.75,4.48Zm7.51-4.11-4.27-11.22-2.15.82-.71-1.87,6.35-2.42.71,1.87-2.15.82,4.28,11.21Zm9.42-2.51-1.62-9.73-.33,3.55-.76,6.63-2.23.37L870.86,330l1.93-.32,1.45,8.74.29-3.17.82-6,2.39-.39,2.3,13.81Zm12.24-2.16a3.22,3.22,0,0,1-2.54.65l-.82-.07-.14,1.58-2.15-.2.14-1.57-.82-.07a3.19,3.19,0,0,1-2.38-1.1,3.71,3.71,0,0,1-.58-2.64l.34-3.8a3.69,3.69,0,0,1,1-2.5,3.16,3.16,0,0,1,2.53-.66l.82.07.15-1.67,2.15.19-.15,1.67.82.08a3.16,3.16,0,0,1,2.38,1.09,3.66,3.66,0,0,1,.58,2.64l-.34,3.81A3.69,3.69,0,0,1,890.33,340.82Zm5.89,4.56,3.34-9.27-2,2.93-3.91,5.42-2.12-.77,4.74-13.17,1.84.66-3,8.34,1.8-2.63,3.65-4.83,2.28.82-4.75,13.17ZM908.75,354l1.49-2.09-2-1.87-2,1.56-1.4-1.34-1.77-1.11,1.14-5.87L903,344l-2.28,3.65-1.87-1.17,7.43-11.87,1.86,1.16-3.23,5.18,5.67-3.65,1.87,1.17-5.9,3.67L905.07,350l11-8.33,2.32,2.23-8.09,11.64Zm13.82-1.82L912.75,359l-1.26-1.8,9.82-6.9L920,348.44l1.63-1.15,3.91,5.57L923.89,354Z" transform="translate(-829.74 -325.97)"/><polygon class="b" points="33.29 95.05 35.4 88.36 31.42 94.14 33.29 95.05"/><path class="b" d="M903.71,420.06a2,2,0,0,0-.86-1.05,1.36,1.36,0,0,0-1.11.15l-.87.41,1.82,3.8,1.11-.54a1.1,1.1,0,0,0,.63-.62,1.56,1.56,0,0,0-.2-1.08Z" transform="translate(-829.74 -325.97)"/><path class="b" d="M901.5,416.75a1.49,1.49,0,0,0-.18-1.18l-.33-.69a1.73,1.73,0,0,0-.7-.85,1,1,0,0,0-.9.06l-.93.44L900,417.8l.76-.36A1.35,1.35,0,0,0,901.5,416.75Z" transform="translate(-829.74 -325.97)"/><path class="b" d="M916.33,381.23a33.86,33.86,0,0,1-67.56,0h-19a52.86,52.86,0,0,0,105.62,0Zm-63,39.21,1.61-5.63-1.28.6-2.54,3.37-1.72-1.3,8.25-11,1.72,1.29-3.59,4.78,5.85-3.08,1.72,1.3-6.07,3.08-2.18,7.87Zm10.34,5.73-1.95-.95.75-2.4-2.37-1.16-1.43,2.07-1.78-.87,8-11.35,2.84,1.38Zm6.8,2,1.42-5.33a2.08,2.08,0,0,1-1,.33,2.82,2.82,0,0,1-1-.07,2.39,2.39,0,0,1-1.72-1.36,3.68,3.68,0,0,1-.06-2.38l1.5-5.6,2.08.55-1.45,5.44a1.3,1.3,0,0,0,.09,1.08,1.35,1.35,0,0,0,.77.55,1,1,0,0,0,.88-.15,1.58,1.58,0,0,0,.56-.93L874,415l2.08.55-3.54,13.25Zm12-10.2-3.71-.29-.3,3.81,2.95.23-.16,1.95-2.95-.23-.31,4,3.71.29-.15,2-5.86-.46,1.07-13.67,5.86.46Zm7.25,10.45a3.68,3.68,0,0,1-4.78.45,3.66,3.66,0,0,1-1-2.47l-.67-7.1a3.65,3.65,0,0,1,.56-2.62,3.12,3.12,0,0,1,2.31-1.11,3.08,3.08,0,0,1,2.47.66,3.62,3.62,0,0,1,1,2.47l.13,1.32-2,.2-.14-1.47a1.46,1.46,0,0,0-.4-1,1.12,1.12,0,0,0-.84-.23,1.08,1.08,0,0,0-.78.38,1.45,1.45,0,0,0-.2,1.07l.69,7.38a1.44,1.44,0,0,0,.4,1,1.12,1.12,0,0,0,.84.22,1.16,1.16,0,0,0,.78-.37,1.42,1.42,0,0,0,.21-1.06l-.19-1.95,2-.2.17,1.82A3.61,3.61,0,0,1,889.74,428.46Zm5.25-.33-3.11-11.34-2.18.6-.51-1.89,6.42-1.76.52,1.88-2.18.6,3.11,11.34Zm11.51-5.34a3.31,3.31,0,0,1-1.85,1.81l-3.06,1.47-5.92-12.37,2.93-1.41a2.76,2.76,0,0,1,4.24,1.47l.21.44a4,4,0,0,1,.46,1.72,1.06,1.06,0,1,0,1.07,1.82,4,4,0,0,1,1.13,1.51l.48,1A3.3,3.3,0,0,1,906.5,422.79Zm7.49-4L912.21,417l-2.13,1.57,1.18,2.22L909.67,422l-6.38-12.34,2.53-1.87,9.92,9.73Z" transform="translate(-829.74 -325.97)"/><polygon class="b" points="81.13 89.72 76.17 84.75 79.46 90.95 81.13 89.72"/></svg>