<svg xmlns="http://www.w3.org/2000/svg" viewBox="0 0 105.63 105.75"><defs><style>.a,.b{fill:#abadb0;}.a{fill-rule:evenodd;}</style></defs><title>2</title><path class="a" d="M804.07,491.08H777.71a2.55,2.55,0,0,0-2.78,2.78L774.51,522a2.33,2.33,0,0,0,2.34,2.33h1.53a5.63,5.63,0,0,1,11.18,0h19.57a5.62,5.62,0,0,1,11.17,0h3.4a2.34,2.34,0,0,0,0-4.67h-.46v-5.49a11.68,11.68,0,0,0-11.64-11.65h-4.76v-8.66a2.53,2.53,0,0,0-2.77-2.78ZM782,498h12.82l-2.24-2.46a.29.29,0,0,1,0-.4l1.47-1.35a.28.28,0,0,1,.4,0l6.26,6.26a.28.28,0,0,1,0,.4c-2.1,2.1-4.22,4.18-6.32,6.28a.28.28,0,0,1-.4,0l-1.47-1.35a.28.28,0,0,1,0-.39l2.23-2.46H782a.35.35,0,0,1-.34-.35v-3.83A.35.35,0,0,1,782,498Zm18.45,10.92H787.7l2.24-2.35a.29.29,0,0,0,0-.4l-1.58-1.47a.3.3,0,0,0-.4,0L781.69,511a.28.28,0,0,0,0,.4c2.1,2.1,4.22,4.18,6.33,6.28a.29.29,0,0,0,.4,0L790,516.3a.29.29,0,0,0,0-.4l-2.23-2.46H800.4a.35.35,0,0,0,.35-.34v-3.84a.35.35,0,0,0-.35-.34Zm14.32,12.56a3.79,3.79,0,1,0,3.78,3.79,3.8,3.8,0,0,0-3.78-3.79Zm-30.75,0a3.79,3.79,0,1,0,3.79,3.79,3.79,3.79,0,0,0-3.79-3.79Zm36.28-7.31H809.43v-8.66h2.17a8.67,8.67,0,0,1,8.65,8.66Z" transform="translate(-745.35 -457.86)"/><polygon class="b" points="55.95 12.43 58.06 12.66 57.75 5.5 55.95 12.43"/><path class="b" d="M767.39,486.06,766,485a1.41,1.41,0,0,0-1-.38,1.19,1.19,0,0,0-.72.48l-.77,1,3.53,2.65.77-1a1.14,1.14,0,0,0,.27-.82A1.39,1.39,0,0,0,767.39,486.06Z" transform="translate(-745.35 -457.86)"/><polygon class="b" points="83.74 16.66 78.32 21.34 79.93 22.72 83.74 16.66"/><path class="b" d="M798.16,457.86A52.94,52.94,0,0,0,745.36,508h19a33.86,33.86,0,0,1,67.51,0H851A53,53,0,0,0,798.16,457.86ZM769.37,489l-2.09,2.78-11.19-8.41,3.7-4.92,1.6,1.2L759,482.77l2.86,2.15.77-1a3.29,3.29,0,0,1,2.2-1.46,3.64,3.64,0,0,1,2.56.89l1.2.9a3.58,3.58,0,0,1,1.56,2.21A3.22,3.22,0,0,1,769.37,489Zm2.59-3.22-9.33-10.43,4.48-4,1.33,1.49-2.83,2.53,2.59,2.91,2.26-2,1.33,1.49-2.25,2,2.73,3.06,2.83-2.54,1.34,1.49Zm9.45-7.92a3.77,3.77,0,0,1-4.21,2.52,3.73,3.73,0,0,1-2.05-1.81l-3.74-6.25a3.77,3.77,0,0,1-.63-2.67,3.19,3.19,0,0,1,1.64-2,3.14,3.14,0,0,1,2.57-.47,3.73,3.73,0,0,1,2,1.81l.7,1.17L776,471.13l-.77-1.28a1.47,1.47,0,0,0-.81-.76,1.14,1.14,0,0,0-.88.16,1.15,1.15,0,0,0-.55.69,1.52,1.52,0,0,0,.29,1.08l3.88,6.49a1.48,1.48,0,0,0,.81.75,1.3,1.3,0,0,0,1.42-.86,1.44,1.44,0,0,0-.28-1.07l-1-1.71,1.78-1.07,1,1.6A3.76,3.76,0,0,1,781.41,477.81Zm6.13-1.61-3.92-11.34-2.36.82L785.17,477l-2.07.72-4.57-13.24,6.56-2.26,4.57,13.23Zm8-1.5-1.31-11.93-1.91.21.69,8.44a4.21,4.21,0,0,1-.51,2.81,3.06,3.06,0,0,1-2.29,1.07l-.33,0-.22-2a2.9,2.9,0,0,0,.62-.11.77.77,0,0,0,.39-.23.93.93,0,0,0,.18-.46,5,5,0,0,0,0-.78l-.79-10.55,6.18-.68,1.53,13.92Zm8.06.31-.11-2.57-2.69-.28-.64,2.48-2-.21,3.7-13.69,3.2.34.76,14.16Zm4.15.9,3.54-11.47-2.2-.68.59-1.91,6.5,2-.59,1.91-2.2-.68-3.54,11.47Zm8.71,3.68,2.86-5.27-2.19-1.19-2.87,5.27-1.93-1,6.69-12.3L821,466.1l-2.87,5.27,2.2,1.2,2.87-5.27,2,1.07-6.7,12.29Zm12.24,11.64-1.35-1.74,4.51-3.48-.46-.61a1.34,1.34,0,0,0-1-.62,2.12,2.12,0,0,0-1.3.57l-1.74,1.35-.56.42a3.46,3.46,0,0,1-.39.25l-.28.13-.25.09-1.37-1.77h0l-1.65-1.42,1.37-2.17-2-1.76-1.94,1.68-1.53-1.32,10.82-9.16,2.44,2.1-7.38,12a3.21,3.21,0,0,0,.65-.29A7.42,7.42,0,0,0,826,485l1.71-1.32a4.92,4.92,0,0,1,1.67-.9A2,2,0,0,1,831,483a2.8,2.8,0,0,1,1.37-2.87l.87-.68a2.81,2.81,0,0,1,4.54.61l2,2.63Z" transform="translate(-745.35 -457.86)"/><path class="b" d="M835.43,480.85a1.79,1.79,0,0,0-1,.46l-1.1.84a1.54,1.54,0,0,0-.7,1,1.38,1.38,0,0,0,.34,1l.53.68,3.4-2.63-.65-.84A1,1,0,0,0,835.43,480.85Z" transform="translate(-745.35 -457.86)"/><path class="b" d="M812.39,550.47a1.53,1.53,0,0,0,0-1.21l-.25-.74a1.79,1.79,0,0,0-.61-.95,1,1,0,0,0-.92-.05l-1,.33,1.18,3.51.82-.28A1.34,1.34,0,0,0,812.39,550.47Z" transform="translate(-745.35 -457.86)"/><path class="b" d="M782.72,546.18a1.09,1.09,0,0,0-.88,0,1.47,1.47,0,0,0-.72.85l-3,6.93A1.56,1.56,0,0,0,778,555a1.13,1.13,0,0,0,.64.61,1.12,1.12,0,0,0,.89,0,1.48,1.48,0,0,0,.71-.86l3-6.92a1.51,1.51,0,0,0,.15-1.11A1.1,1.1,0,0,0,782.72,546.18Z" transform="translate(-745.35 -457.86)"/><path class="b" d="M814.22,554.1a2.08,2.08,0,0,0-.74-1.17,1.47,1.47,0,0,0-1.15,0l-.93.31,1.38,4.08,1.19-.4a1.15,1.15,0,0,0,.71-.56,1.54,1.54,0,0,0-.07-1.12Z" transform="translate(-745.35 -457.86)"/><path class="b" d="M831.94,513.12a33.86,33.86,0,0,1-67.56,0h-19a52.75,52.75,0,0,0,18.46,37.76L766,547.8l.7.5a2.12,2.12,0,0,0,.77-.41,5.4,5.4,0,0,0,.73-.76l6.36-8,5,3.59-7,9.78.78.56-2.22,3.1a52.83,52.83,0,0,0,79.85-43Zm-51.51,44.5a3.82,3.82,0,0,1-4.55-2,3.7,3.7,0,0,1,.26-2.74l2.91-6.67a3.68,3.68,0,0,1,1.83-2.05,3.29,3.29,0,0,1,2.64.16,3.23,3.23,0,0,1,1.91,1.83,3.62,3.62,0,0,1-.26,2.73l-2.91,6.68A3.59,3.59,0,0,1,780.43,557.62Zm12-7-.3,1.33-2-.46.33-1.47a1.43,1.43,0,0,0-.06-1.11,1.06,1.06,0,0,0-.74-.48,1.14,1.14,0,0,0-.88.11,1.48,1.48,0,0,0-.54,1l-1.68,7.37a1.5,1.5,0,0,0,.06,1.1,1.18,1.18,0,0,0,.75.48,1.15,1.15,0,0,0,.87-.11,1.43,1.43,0,0,0,.54-1l.45-1.95,2,.47-.41,1.81a3.74,3.74,0,0,1-1.39,2.36,3.14,3.14,0,0,1-2.59.34,3.19,3.19,0,0,1-2.19-1.43,3.72,3.72,0,0,1-.22-2.73l1.62-7.1a3.73,3.73,0,0,1,1.39-2.36,3.75,3.75,0,0,1,4.77,1.09A3.73,3.73,0,0,1,792.41,550.63Zm7.24-1-2.3-.11-.58,12-2.2-.1.58-12-2.3-.11.1-2,6.79.33Zm6.84,11.23-.71-2.47-2.68.35,0,2.57-2,.27.39-14.18,3.19-.42,4.05,13.59Zm10.22-3.67a3.37,3.37,0,0,1-2.1,1.6l-3.28,1.11-4.47-13.27L810,545.6a3.34,3.34,0,0,1,2.62,0,3.42,3.42,0,0,1,1.5,2.05l.16.47a4.19,4.19,0,0,1,.25,1.8,2.21,2.21,0,0,1-.69,1.33,2.18,2.18,0,0,1,1.55.64,4.37,4.37,0,0,1,1,1.68l.36,1.08A3.35,3.35,0,0,1,816.71,557.22Zm8.2-3.25-4.64-3.77.05,1.45,2.14,3.73-1.9,1.1-7-12.14,1.91-1.1,3,5.29-.55-6.72,1.91-1.1.46,6.94,6.52,5.2Zm7.82-6-2-1.67-2,1.77,1.38,2.17-1.53,1.32-7.5-12,2.43-2.11,10.88,9.09Z" transform="translate(-745.35 -457.86)"/><polygon class="b" points="57.78 98.99 59.88 98.71 57.91 91.83 57.78 98.99"/><path class="b" d="M776.6,543,775.09,542,770,548.36a4,4,0,0,1-.86.86,1.63,1.63,0,0,1-.73.29l2.34,1.68Z" transform="translate(-745.35 -457.86)"/><path class="b" d="M765.52,552.16l-1.26-.9a52.06,52.06,0,0,0,6.53,4.68l-1.45-1,1.1-1.52-3.82-2.74Z" transform="translate(-745.35 -457.86)"/><polygon class="b" points="83.95 87.24 78.5 82.6 82.35 88.63 83.95 87.24"/></svg>