<svg xmlns="http://www.w3.org/2000/svg" viewBox="0 0 105.63 105.75"><defs><style>.a,.b{fill:#abadb0;}.b{fill-rule:evenodd;}</style></defs><title>3</title><path class="a" d="M717.45,473.88a5.53,5.53,0,0,1,0,.76,2.3,2.3,0,0,1-.1.5.83.83,0,0,1-.16.27.32.32,0,0,1-.2.08h-9a.29.29,0,0,1-.19-.08.83.83,0,0,1-.16-.27,2.22,2.22,0,0,1-.11-.5c0-.21,0-.46,0-.76s0-.58,0-.78a2,2,0,0,1,.1-.51.8.8,0,0,1,.15-.28.29.29,0,0,1,.21-.09h3V458.67l-2.62,1.85a1.39,1.39,0,0,1-.47.21.26.26,0,0,1-.29-.09.94.94,0,0,1-.14-.48,7.77,7.77,0,0,1,0-1c0-.25,0-.47,0-.63a2.34,2.34,0,0,1,.06-.43,1,1,0,0,1,.14-.29,2.69,2.69,0,0,1,.24-.24l3.5-2.9a.56.56,0,0,1,.15-.1,1.26,1.26,0,0,1,.25-.07l.4,0h.63c.32,0,.58,0,.77,0a1.45,1.45,0,0,1,.45.08.36.36,0,0,1,.2.15.47.47,0,0,1,0,.24v17.21H717a.28.28,0,0,1,.2.09.67.67,0,0,1,.17.28,2.55,2.55,0,0,1,.1.51Q717.45,473.4,717.45,473.88Z" transform="translate(-682.96 -412.86)"/><path class="a" d="M731,465a29.4,29.4,0,0,1-.31,4.51,11.56,11.56,0,0,1-1,3.43,5.5,5.5,0,0,1-1.84,2.17,5,5,0,0,1-2.79.76,4.57,4.57,0,0,1-4.5-2.84,11.37,11.37,0,0,1-.9-3.37,35.47,35.47,0,0,1-.26-4.5,29.38,29.38,0,0,1,.32-4.5,11.76,11.76,0,0,1,1-3.43,5.45,5.45,0,0,1,1.85-2.17,4.85,4.85,0,0,1,2.77-.76,4.92,4.92,0,0,1,2.78.73,5,5,0,0,1,1.74,2.11,11.4,11.4,0,0,1,.89,3.36A35.83,35.83,0,0,1,731,465Zm-3.33.21q0-1.49-.06-2.61a18.81,18.81,0,0,0-.2-2,9,9,0,0,0-.32-1.41,2.89,2.89,0,0,0-.48-.93,1.59,1.59,0,0,0-.62-.49,2,2,0,0,0-.78-.14,1.69,1.69,0,0,0-1.23.46,3.12,3.12,0,0,0-.77,1.37,10.5,10.5,0,0,0-.39,2.29q-.12,1.37-.12,3.18c0,1.48.05,2.71.14,3.68a10.84,10.84,0,0,0,.43,2.32,2.51,2.51,0,0,0,.77,1.21,1.82,1.82,0,0,0,1.12.34,1.76,1.76,0,0,0,1.52-.8,3.72,3.72,0,0,0,.48-1,10.44,10.44,0,0,0,.3-1.41,18,18,0,0,0,.17-1.82C727.64,466.76,727.65,466,727.65,465.2Z" transform="translate(-682.96 -412.86)"/><path class="a" d="M744,465a29.4,29.4,0,0,1-.31,4.51,11.86,11.86,0,0,1-1,3.43,5.44,5.44,0,0,1-1.85,2.17,5,5,0,0,1-2.78.76,4.86,4.86,0,0,1-2.77-.74,5,5,0,0,1-1.74-2.1,11.68,11.68,0,0,1-.9-3.37,35.61,35.61,0,0,1-.25-4.5,28.16,28.16,0,0,1,.32-4.5,11.47,11.47,0,0,1,1-3.43,5.38,5.38,0,0,1,1.85-2.17,5.52,5.52,0,0,1,5.54,0,5,5,0,0,1,1.75,2.11,11.71,11.71,0,0,1,.89,3.36A35.83,35.83,0,0,1,744,465Zm-3.33.21c0-1,0-1.86-.07-2.61a19.06,19.06,0,0,0-.19-2,9,9,0,0,0-.33-1.41,3.1,3.1,0,0,0-.47-.93,1.55,1.55,0,0,0-.63-.49,1.94,1.94,0,0,0-.78-.14,1.68,1.68,0,0,0-1.22.46,3,3,0,0,0-.77,1.37,11.08,11.08,0,0,0-.4,2.29c-.07.91-.11,2-.11,3.18,0,1.48,0,2.71.14,3.68a10.25,10.25,0,0,0,.43,2.32,2.5,2.5,0,0,0,.76,1.21,1.84,1.84,0,0,0,1.12.34,1.76,1.76,0,0,0,1.53-.8,3.45,3.45,0,0,0,.47-1,9,9,0,0,0,.31-1.41,18.15,18.15,0,0,0,.16-1.82C740.69,466.76,740.71,466,740.71,465.2Z" transform="translate(-682.96 -412.86)"/><path class="b" d="M751.27,461.87a1.31,1.31,0,0,0,.52-.11,1.07,1.07,0,0,0,.44-.32,1.64,1.64,0,0,0,.3-.59,3.22,3.22,0,0,0,.11-.89,3.15,3.15,0,0,0-.11-.88,1.56,1.56,0,0,0-.3-.59,1.09,1.09,0,0,0-.44-.33,1.3,1.3,0,0,0-.52-.1,1.23,1.23,0,0,0-1,.43,2.26,2.26,0,0,0-.37,1.47,2.29,2.29,0,0,0,.37,1.48A1.23,1.23,0,0,0,751.27,461.87Z" transform="translate(-682.96 -412.86)"/><path class="b" d="M761.08,468a1.24,1.24,0,0,0-.44-.33,1.35,1.35,0,0,0-.52-.11,1.26,1.26,0,0,0-1,.44,3.18,3.18,0,0,0,0,2.94,1.26,1.26,0,0,0,1,.44,1.35,1.35,0,0,0,.52-.11,1.24,1.24,0,0,0,.44-.33,1.85,1.85,0,0,0,.3-.58,3.31,3.31,0,0,0,.1-.89,3.18,3.18,0,0,0-.1-.88A1.81,1.81,0,0,0,761.08,468Z" transform="translate(-682.96 -412.86)"/><path class="b" d="M763.4,454.84H748a2.15,2.15,0,0,0-2.14,2.14V472.4a2.14,2.14,0,0,0,2.14,2.14H763.4a2.15,2.15,0,0,0,2.15-2.14V457A2.16,2.16,0,0,0,763.4,454.84Zm-15.28,6.66a4.3,4.3,0,0,1-.27-1.54,4.23,4.23,0,0,1,.27-1.52,4.34,4.34,0,0,1,.73-1.26,3.61,3.61,0,0,1,1.09-.85,3,3,0,0,1,2.66,0,3.61,3.61,0,0,1,1.09.85,4.15,4.15,0,0,1,.74,1.26,4.23,4.23,0,0,1,.27,1.52,4.3,4.3,0,0,1-.27,1.54,4.18,4.18,0,0,1-.74,1.25,3.43,3.43,0,0,1-1.09.84,3,3,0,0,1-2.66,0,3.43,3.43,0,0,1-1.09-.84A4.16,4.16,0,0,1,748.12,461.5Zm3,11.59h-1.33c-.27,0-.35-.26-.15-.57l10-15.78a1.21,1.21,0,0,1,.84-.58h1.33c.28,0,.35.27.16.58l-10,15.78A1.24,1.24,0,0,1,751.14,473.09ZM763.27,471a4,4,0,0,1-.73,1.25,3.7,3.7,0,0,1-1.09.84,3,3,0,0,1-2.67,0,3.66,3.66,0,0,1-1.08-.84A4,4,0,0,1,757,471a4.5,4.5,0,0,1,0-3.07,4.19,4.19,0,0,1,.73-1.25,3.54,3.54,0,0,1,1.08-.85,3,3,0,0,1,2.67,0,3.58,3.58,0,0,1,1.09.85,4.19,4.19,0,0,1,.73,1.25,4.5,4.5,0,0,1,0,3.07Z" transform="translate(-682.96 -412.86)"/><path class="a" d="M767.49,429.76a1.45,1.45,0,0,0-1,.58l-5.1,5.58a1.52,1.52,0,0,0-.49,1,1.13,1.13,0,0,0,.4.79,1.15,1.15,0,0,0,.82.33,1.47,1.47,0,0,0,1-.58l5.1-5.58a1.48,1.48,0,0,0,.49-1,1.26,1.26,0,0,0-1.22-1.12Z" transform="translate(-682.96 -412.86)"/><path class="a" d="M757.37,429.24l-.84-.5-2.2,3.69,1.08.65a1.11,1.11,0,0,0,.89.17,1.57,1.57,0,0,0,.8-.78l.62-1a2,2,0,0,0,.4-1.32A1.38,1.38,0,0,0,757.37,429.24Z" transform="translate(-682.96 -412.86)"/><path class="a" d="M760.18,426.86l.4-.67a1.74,1.74,0,0,0,.33-1.08,1,1,0,0,0-.55-.73l-.91-.54-1.9,3.18.74.44a1.42,1.42,0,0,0,1,.22A1.51,1.51,0,0,0,760.18,426.86Z" transform="translate(-682.96 -412.86)"/><polygon class="a" points="34.43 16.71 36.34 15.8 32.35 9.86 34.43 16.71"/><path class="a" d="M735.78,412.86A53,53,0,0,0,683,463h19a33.86,33.86,0,0,1,67.51,0h19.05A52.94,52.94,0,0,0,735.78,412.86Zm-14,19.53-1.43-2.13L718,431.41l.74,2.46-1.73.82L715.3,436l-5.08-3.14.23,1.43,2.6,3.42L711.3,439l-8.47-11.15,1.75-1.33,3.69,4.86-1.39-6.6,1.75-1.33,1.34,6.82,6.8,4.13-3.87-13.27,2.91-1.37,8,11.69Zm6.71-2.05-1.3-5.49a2,2,0,0,1-.73.78,2.78,2.78,0,0,1-.92.42,2.44,2.44,0,0,1-2.2-.4,3.69,3.69,0,0,1-1.2-2.11l-1.37-5.76,2.14-.5,1.33,5.58a1.32,1.32,0,0,0,.6.93,1.33,1.33,0,0,0,1,.12,1,1,0,0,0,.72-.55,1.63,1.63,0,0,0,.06-1.11l-1.31-5.53,2.14-.51,3.22,13.63Zm3.09-.58-.49-14,6-.21.07,2-3.8.13.14,3.89,3-.1.07,2-3,.1.14,4.1,3.8-.13.07,2Zm14.69-9.69-.21,1.34-2.06-.32.23-1.48a1.51,1.51,0,0,0-.14-1.11,1.12,1.12,0,0,0-.77-.43,1.16,1.16,0,0,0-.87.18,1.52,1.52,0,0,0-.47,1l-1.16,7.47a1.44,1.44,0,0,0,.14,1.09,1.16,1.16,0,0,0,.77.43,1.19,1.19,0,0,0,.87-.17,1.49,1.49,0,0,0,.47-1l.31-2,2.05.32-.28,1.84a3.76,3.76,0,0,1-1.23,2.45,3.76,3.76,0,0,1-4.84-.75,3.79,3.79,0,0,1-.42-2.71l1.13-7.19a3.76,3.76,0,0,1,1.22-2.46,3.75,3.75,0,0,1,4.84.76A3.79,3.79,0,0,1,746.31,420.07Zm.59,11.29,4-11.3-2.16-.77.67-1.89,6.4,2.29-.67,1.89L753,420.8l-4,11.3Zm10.07,4a3.38,3.38,0,0,1-2.58-.54l-3-1.77,7.16-12,2.85,1.69a2.81,2.81,0,0,1,1.15,4.44l-.25.43a4,4,0,0,1-1.2,1.35,2.13,2.13,0,0,1-1.46.34,2.22,2.22,0,0,1,.52,1.61,4.33,4.33,0,0,1-.65,1.81l-.58,1A3.36,3.36,0,0,1,757,435.34Zm12.78-1.88-4.91,5.38a3.63,3.63,0,0,1-2.39,1.35,3.3,3.3,0,0,1-2.45-1,3.25,3.25,0,0,1-1.21-2.35,3.66,3.66,0,0,1,1.12-2.51l4.91-5.37a3.63,3.63,0,0,1,2.39-1.35,3.84,3.84,0,0,1,3.67,3.35A3.64,3.64,0,0,1,769.75,433.46Z" transform="translate(-682.96 -412.86)"/><path class="a" d="M769.56,468.12a33.86,33.86,0,0,1-67.56,0H683a52.87,52.87,0,0,0,105.63,0ZM713,511.19l5.14-10.84-2.08-1,.86-1.81,6.14,2.91-.86,1.81-2.07-1L715,512.14Zm15.5-5.79-1.89,7a3.66,3.66,0,0,1-1.51,2.29,3.82,3.82,0,0,1-4.79-1.29,3.6,3.6,0,0,1-.15-2.74l1.89-7a3.63,3.63,0,0,1,1.51-2.3,3.85,3.85,0,0,1,4.79,1.29A3.72,3.72,0,0,1,728.54,505.4Zm7.63.49,0,.5a4,4,0,0,1-.47,1.75,2.15,2.15,0,0,1-1.15,1,2.22,2.22,0,0,1,1.19,1.2,4.39,4.39,0,0,1,.23,1.91l-.08,1.14a3,3,0,0,1-3.57,3.07l-3.45-.24,1-14,3.31.24a2.81,2.81,0,0,1,3,3.44Zm7.32,10.1-.68-2.48-2.68.32-.08,2.57-2,.24.56-14.17,3.2-.38,3.88,13.63Zm8.38-8.48a3.21,3.21,0,0,1-2.09,1.58l-1,.31,1.58,5-2.09.66-4.22-13.35,3.09-1a3.2,3.2,0,0,1,2.62.09,3.75,3.75,0,0,1,1.55,2.22l.54,1.73A3.65,3.65,0,0,1,751.87,507.51Zm9.41,2.21-1.54-2.06-2.38,1.28.87,2.42-1.78,1-4.67-13.39,2.84-1.53,8.61,11.27Z" transform="translate(-682.96 -412.86)"/><path class="a" d="M732.46,510.12l-1-.07-.3,4.29,1.25.09a1.11,1.11,0,0,0,.87-.24,1.57,1.57,0,0,0,.37-1.06l.09-1.21a2.06,2.06,0,0,0-.24-1.36A1.4,1.4,0,0,0,732.46,510.12Z" transform="translate(-682.96 -412.86)"/><path class="a" d="M749.18,503.6a1.5,1.5,0,0,0-.58-.91,1.12,1.12,0,0,0-.85,0l-1,.32,1.43,4.52,1-.32a1.1,1.1,0,0,0,.68-.5,1.51,1.51,0,0,0-.05-1.08Z" transform="translate(-682.96 -412.86)"/><polygon class="a" points="57.22 99.05 59.32 98.8 57.43 91.89 57.22 99.05"/><path class="a" d="M733,504.44l-1.06-.08-.26,3.7.85.06a1.39,1.39,0,0,0,1-.25,1.55,1.55,0,0,0,.44-1.14L734,506a1.72,1.72,0,0,0-.19-1.12A1,1,0,0,0,733,504.44Z" transform="translate(-682.96 -412.86)"/><path class="a" d="M725.71,503.06a1.14,1.14,0,0,0-.88.08,1.48,1.48,0,0,0-.58,1l-2,7.3a1.46,1.46,0,0,0,0,1.11,1.25,1.25,0,0,0,1.6.43,1.47,1.47,0,0,0,.58-1l2-7.3a1.55,1.55,0,0,0,0-1.12A1.15,1.15,0,0,0,725.71,503.06Z" transform="translate(-682.96 -412.86)"/><polygon class="a" points="73.74 94.28 75.61 93.27 71.32 87.54 73.74 94.28"/></svg>