<svg xmlns="http://www.w3.org/2000/svg" viewBox="0 0 105.63 105.75"><defs><style>.a,.b{fill:#abadb0;}.a{fill-rule:evenodd;}</style></defs><title>5</title><path class="a" d="M52.81,30.13A22.75,22.75,0,1,0,75.56,52.87,22.74,22.74,0,0,0,52.81,30.13Zm0,40.33A17.59,17.59,0,1,1,70.4,52.87,17.59,17.59,0,0,1,52.81,70.46Z"/><polygon class="a" points="48.44 39.17 48.44 48.51 39.11 48.51 39.11 57.24 48.44 57.24 48.44 66.58 57.18 66.58 57.18 57.24 66.52 57.24 66.52 48.51 57.18 48.51 57.18 39.17 48.44 39.17 48.44 39.17"/><path class="b" d="M83.32,15.83a.84.84,0,0,0-.35-.66.85.85,0,0,0-.72-.2,1.57,1.57,0,0,0-.84.64l-4.54,5.67a1.55,1.55,0,0,0-.44,1,.81.81,0,0,0,.34.66.86.86,0,0,0,.72.2,1.62,1.62,0,0,0,.85-.64l4.53-5.67A1.57,1.57,0,0,0,83.32,15.83Z"/><path class="b" d="M12.63,32.91l-1.82-.85a1.61,1.61,0,0,0-1-.22.86.86,0,0,0-.52.49l-.36.78L13,35l.37-.77a.83.83,0,0,0,0-.72A1.66,1.66,0,0,0,12.63,32.91Z"/><polygon class="b" points="19.51 29.17 13.4 26.05 18.52 30.61 19.51 29.17"/><path class="b" d="M45.66,6.45a1.66,1.66,0,0,0-.43-1,.88.88,0,0,0-.73-.17.83.83,0,0,0-.62.41,1.61,1.61,0,0,0-.08,1l1.25,7.16a1.54,1.54,0,0,0,.43,1,.86.86,0,0,0,.72.17.83.83,0,0,0,.62-.41,1.55,1.55,0,0,0,.08-1.05Z"/><path class="b" d="M52.81,0A52.93,52.93,0,0,0,0,50.17h19a33.86,33.86,0,0,1,67.51,0h19.05A52.94,52.94,0,0,0,52.81,0ZM17.61,42.8l-.77,2.75L3.9,41.92l.74-2.64a2.5,2.5,0,0,1,1.29-1.77,3.59,3.59,0,0,1,2.41,0l.46.13a4.33,4.33,0,0,1,1.57.73,2,2,0,0,1,.72,1.13,1.93,1.93,0,0,1,1.31-.72,4.88,4.88,0,0,1,1.83.19l1.06.3a3.59,3.59,0,0,1,2.1,1.31A2.56,2.56,0,0,1,17.61,42.8Zm1-3.17L6.41,33.94l1.13-2.42A2.43,2.43,0,0,1,9.17,30a3.91,3.91,0,0,1,2.53.44l1.58.74a3.9,3.9,0,0,1,2,1.65,2.44,2.44,0,0,1-.09,2.21l-.37.77L19.36,38Zm4.76-8.51L21.16,30,19.9,31.84l1.83,1.63-.94,1.38-10-9.12,1.5-2.19,12.14,6.07Zm3.81-4.37L23.26,23a1.7,1.7,0,0,1-.1.92,2,2,0,0,1-.44.71,1.87,1.87,0,0,1-1.79.62,3.88,3.88,0,0,1-2-1.15l-4.09-3.95,1.27-1.3,4,3.83a1.39,1.39,0,0,0,.93.47,1,1,0,0,0,.75-.31.77.77,0,0,0,.22-.74,1.68,1.68,0,0,0-.56-.89l-3.92-3.8,1.26-1.3,9.67,9.35Zm5.2-4.26-5.57-7.66,1.34,3.11,2.4,5.88L29,24.91,21.12,14l1.31-.95,5,6.89-1.21-2.78-2.06-5.37,1.62-1.17,7.9,10.88Zm-.69-6.37-.9-1.7,2.92-1.53.89,1.7Zm10.21,1.79-3.46-4.46-.12,1.34,1.39,3.89L38,19.29,33.48,6.62,35.19,6l2,5.52.28-6.31,1.71-.61-.38,6.49,4.87,6.18Zm6.51-2.16a2.8,2.8,0,0,1-4,.7,3.81,3.81,0,0,1-1.13-2.34L42,7.22a3.83,3.83,0,0,1,.27-2.59,2.51,2.51,0,0,1,1.86-1.22,2.48,2.48,0,0,1,2.17.52,3.86,3.86,0,0,1,1.13,2.34l1.19,6.89A3.83,3.83,0,0,1,48.39,15.75Zm6-.23a2.77,2.77,0,0,1-4,.07,4,4,0,0,1-.72-2.5l-.12-7a4,4,0,0,1,.65-2.52,2.37,2.37,0,0,1,2-.9,2.4,2.4,0,0,1,2,.84A4,4,0,0,1,55,6l0,1.31-1.71,0,0-1.44a1.53,1.53,0,0,0-.27-1,1,1,0,0,0-1.37,0,1.73,1.73,0,0,0-.24,1l.12,7.26a1.59,1.59,0,0,0,.27,1,1,1,0,0,0,1.37,0,1.53,1.53,0,0,0,.24-1l0-1.93,1.72,0,0,1.78A4,4,0,0,1,54.44,15.52Zm7,1.72,1.72-9.49-3,9.26-1.68-.3.37-9.6-1.7,9.35-1.56-.28L58.06,3l2.48.45L60.14,13l2.93-9.17,2.48.45-2.4,13.23Zm7.66.63-.69,1.79-4.62-1.79L68.67,5.33l4.61,1.79-.69,1.79L69.67,7.78l-1.36,3.49,2.32.9L69.94,14l-2.32-.9L66.2,16.74Zm1,2.76,5.73-10-1.65-1L75.2,8l4.87,2.78-.95,1.67-1.65-.94-5.72,10Zm5.4,3.77a2.5,2.5,0,0,1-1-2,3.93,3.93,0,0,1,1-2.4l4.37-5.46A3.86,3.86,0,0,1,82,13.07a2.47,2.47,0,0,1,2.14.6,2.5,2.5,0,0,1,1,2,3.88,3.88,0,0,1-1,2.4l-4.36,5.46A3.89,3.89,0,0,1,77.72,25,2.48,2.48,0,0,1,75.57,24.4Zm5.49,5.17L89.71,22l-1-1.19L82.44,26A4.52,4.52,0,0,1,80,27.22a2.32,2.32,0,0,1-1.89-1l-.19-.21,1.44-1.27a3.18,3.18,0,0,0,.38.37.58.58,0,0,0,.35.13.86.86,0,0,0,.45-.14,3.69,3.69,0,0,0,.6-.43L89,18.22l3.39,3.86L82.28,31ZM84,34a2.46,2.46,0,0,1-.31-2.2,3.88,3.88,0,0,1,1.77-1.91l6-3.63a3.88,3.88,0,0,1,2.51-.7A2.83,2.83,0,0,1,96,29a4,4,0,0,1-1.78,1.91l-6,3.64a3.93,3.93,0,0,1-2.51.69A2.48,2.48,0,0,1,84,34Zm2.53,4.58-.69-1.68,12.45-5.09,1.81,4.42-1.78.73-1.12-2.75ZM88.79,46,98,43.88H94.64l-6.35-.12L87.88,42,101,39l.36,1.58-8.3,1.88h3l5.74.22.44,1.94-13.11,3Z"/><path class="b" d="M14.74,41l-1.13-.32a2.18,2.18,0,0,0-1.31-.08,1.06,1.06,0,0,0-.57.77l-.22.78,4,1.11.29-1a.87.87,0,0,0-.09-.75A1.8,1.8,0,0,0,14.74,41Z"/><path class="b" d="M8.78,39.53l-.73-.2A2,2,0,0,0,7,39.26a.79.79,0,0,0-.51.59l-.23.84,3.42,1L9.85,41a1,1,0,0,0-.08-.86A1.69,1.69,0,0,0,8.78,39.53Z"/><path class="b" d="M93.44,29.29a1.58,1.58,0,0,0,.74-.75.85.85,0,0,0-.1-.74.83.83,0,0,0-.61-.43,1.56,1.56,0,0,0-1,.32l-6.2,3.77a1.56,1.56,0,0,0-.75.75.85.85,0,0,0,.1.74.83.83,0,0,0,.61.43,1.6,1.6,0,0,0,1-.31Z"/><path class="b" d="M36,88a1.07,1.07,0,0,0-.83-.08,1.47,1.47,0,0,0-.7.79l-3.08,6.41a1.37,1.37,0,0,0-.17,1,1.21,1.21,0,0,0,1.41.68,1.4,1.4,0,0,0,.7-.78l3.07-6.42a1.38,1.38,0,0,0,.18-1A1.09,1.09,0,0,0,36,88Z"/><path class="b" d="M83,79.57a1.37,1.37,0,0,0-.92-.52A1.21,1.21,0,0,0,81,80.14a1.42,1.42,0,0,0,.5.92l5,5.09a1.4,1.4,0,0,0,.91.52,1,1,0,0,0,.76-.34,1,1,0,0,0,.36-.75,1.41,1.41,0,0,0-.5-.93Z"/><path class="b" d="M65.59,89.77l2.27,7.36a4,4,0,0,1,.22,1.13,1.66,1.66,0,0,1-.17.72l2.55-.93-3.22-8.88Z"/><path class="b" d="M17.76,78.19a1.41,1.41,0,0,0,.95-.34l1.63-1.12A1.44,1.44,0,0,0,21,76a1.06,1.06,0,0,0-.21-.77l-.56-.81-3.67,2.53.55.81A1,1,0,0,0,17.76,78.19Z"/><path class="b" d="M86.59,55.26a33.86,33.86,0,0,1-67.56,0H0a52.87,52.87,0,0,0,105.63,0ZM9.76,79.08l10.85-7.47,1.73,2.51A3,3,0,0,1,23,76.5a3.46,3.46,0,0,1-1.56,2l-1.41,1a3.48,3.48,0,0,1-2.44.75,3,3,0,0,1-2-1.44L15,78l-4.08,2.81ZM20,88.65,18.68,90,14.75,85.9l9.47-9.15,3.93,4-1.36,1.31-2.48-2.57-2.64,2.55,2,2-1.36,1.3-2-2-2.78,2.68Zm6.22,7.13-1.72-1.25L26,89.1l-1.22.6L22.39,93l-1.68-1.22L28.46,81.1l1.67,1.22L26.76,87l5.56-3L34,85.13l-5.78,3.05Zm7.23,2.86A3.08,3.08,0,0,1,31,98.4a3.06,3.06,0,0,1-1.73-1.78,3.46,3.46,0,0,1,.33-2.57l3-6.17A3.4,3.4,0,0,1,34.36,86a3,3,0,0,1,2.47.23A3.08,3.08,0,0,1,38.57,88a3.51,3.51,0,0,1-.34,2.57l-3,6.17A3.42,3.42,0,0,1,33.48,98.64Zm11.73,4.17-1.9-.46,2.21-9.18L41.92,102,40,101.56l.69-9.42-2.19,9.06-1.75-.42L39.84,88l2.8.67-.71,9.45,3.56-8.76,2.8.68ZM54.42,92l-3.57-.12-.13,3.67,2.84.09L53.5,97.5l-2.84-.09-.13,3.85,3.58.12L54,103.26l-5.64-.19.44-13.16,5.64.19Zm6.73,10.54-.8-5.59L58,97.26l.8,5.59-2,.3-1.87-13,2.05-.3.8,5.59,2.33-.33-.8-5.59,2.08-.3,1.87,13Zm11.44-1.4L72,99.46,67.83,101l.6,1.66-1.89.69-1.23-3.4.76-.27a1.94,1.94,0,0,0,.09-.82,4.93,4.93,0,0,0-.2-1l-2.83-9.2,5.44-2,3.87,10.65.85-.31,1.23,3.4ZM89.41,87.68a3.07,3.07,0,0,1-2.27,1,3.43,3.43,0,0,1-2.29-1.19l-1.74-1.78L82,86.81l3.94,4-1.48,1.44-9-9.17,3.08,9.06A8.63,8.63,0,0,1,79,93.74a3.05,3.05,0,0,1,0,1.32,2.87,2.87,0,0,1-.69,1.14,5.68,5.68,0,0,1-1.48,1l-1-1.57a2.47,2.47,0,0,0,1-.78,1.15,1.15,0,0,0,0-1.09l0-.11L69,86.51l1.75-1.07,3.31,3.25L76.25,91l-1.19-2.87-1.55-4.34,1.84-1.13,0,.11,1.36-1.33,3.94,4,1.11-1.08L80.06,82.6a3.48,3.48,0,0,1-1.14-2.32A3.63,3.63,0,0,1,82.26,77a3.45,3.45,0,0,1,2.3,1.19l4.78,4.9a3.43,3.43,0,0,1,1.14,2.33A3.06,3.06,0,0,1,89.41,87.68Zm-4.6-12.42-1.2,1.8L82,76l3.54-5.33,1.57,1L86,73.53l9.41,6.24-1.14,1.72Z"/></svg>