<svg id="Layer_1" data-name="Layer 1" xmlns="http://www.w3.org/2000/svg" viewBox="0 0 1125.7 556.03"><defs><style>.cls-1{fill:#2c2c2b;}.cls-1,.cls-2{fill-rule:evenodd;}.cls-2{fill:#d7b46c;}</style></defs><g id="g28"><path id="path22" class="cls-1" d="M1068.75,578.12V683.55L1049,695.94c-.93.47-3.41,2-3.46-1.24V520.56c-3-9.6,4.07-16,11.39-16.16,6.87-.13,14,5.4,11.86,16.3v49.51h27.79a46.68,46.68,0,0,1,5.43-20.72c13.91-26.11,48.84-34.43,76.08-34.43h146.57c3.21-.13,4.31,2.07,2.65,4.69l-16.49,13H1179c-19.39,0-46,5-55.79,24.13a31.85,31.85,0,0,0-3.44,13.3h128c2.14.12,3.58,1.64,1.86,3.87l-17.05,13.85H1125.84c-4.14.05-6.44,1.55-6.07,5.14v79.3h191.32l16.82,12.07-.15-92.65c.14-4.1-.77-6.08-3.94-7.35l-20.68-10.35c-3.25-1.77-2.38-4,.85-3.88h23.79a46.09,46.09,0,0,1,5.94-21.53c14.24-25.18,48.75-33.62,75.57-33.62H1555V531a47.1,47.1,0,0,1-5.39,22.2c-13.85,26.28-48.79,34.77-76.15,34.77h-48.8c-3.32.1-3,1.23-.93,2.72l124.63,95.1c2.37,1.62,1.06,4.34-1.3,4.34h-27l-134-102.16h-27.74c-5.83,0-7.55,4.14-7.37,6.3v89.32l-18.94,13.73c-2.13,1.51-4.24-.72-4.3-2.24v-1.16c-.12-4-3.44-3.76-4.14-3.79H1096.52V589.69c0-3.63-1.48-3.41-3.66-5.11l-19.27-9.5C1070.48,573.88,1068.73,577.06,1068.75,578.12ZM927.54,653.58l87-138.52h22.64c1.69.19,2.64.63,1.63,2.77L927.53,693.52c-2,1.65-4.33,2.08-6.15.11L810.21,518.07c-1.6-2.8.39-3,2-3h22.19l88.26,138.43C924.3,656.53,926.52,655.16,927.54,653.58ZM773.06,587.93H605c-1.55.19-3.39.39-3.34,2.78v92.84l-19.35,12.11c-1.69.72-3.05,1-3.89-1.39V593c.21-5.3-.19-7.5-7.64-10.89l-17.6-8.43c-1.58-1.47-.55-3.44,1.36-3.52h23.9a46.39,46.39,0,0,1,5.43-20.65c13.92-26.11,48.84-34.43,76.08-34.43H803.44V683.79l-19.32,12.09c-3.46,1.82-4.15,0-3.93-1.9V594.37C780.26,590.58,775.64,588.13,773.06,587.93ZM714.39,727.84c1.07-.07,2-.51,2.07-2.5V666.08c0-3,.91-5.57,3.77-7.11l15.66-10.69c3.13-2.24,5.87-1.73,5.7,1.23v95.57a3.93,3.93,0,0,1-4.09,4.06H484.43V471.61c.09-3.08,2.86-5.56,6.87-3.17L507.91,481c1.59,1.27,1.63,1.6,1.66,3.39l.64,243.35ZM1351,570.21h121.48c19.35,0,45.68-5,55.62-23.9a32.23,32.23,0,0,0,3.6-13.53H1410.27c-19.39,0-46,5-55.78,24.13A31.72,31.72,0,0,0,1351,570.21Zm-570.85,0V532.78H661c-19.39,0-46,5-55.78,24.13a31.72,31.72,0,0,0-3.45,13.3Z" transform="translate(-484.43 -241.21)"/><path id="path24" class="cls-2" d="M978.36,454.47c53.32,53.58,72.48,21.29,82.31,8.06a5.73,5.73,0,0,0,1.46-.28c10.11,13.94,28.12,46.66,85.7-7.47,58.77-55.25,97.22-128.23,90.21-137.93-9.69-13.4-109.37,55.42-116.28,61.83-3.26-76.11-25.55-136.51-37.25-137.46-18.7-1.52-27.31,106.72-28.13,114.59-1.51-7.54-19.59-113.48-38.32-110.41-10.76,1.75-24.8,56.36-24.66,124.5l-1.12,1.46c-44.83-38.66-90.6-63-98.14-54.05S921.32,397.16,978.36,454.47ZM1077.45,443c-15.27-11.78,12.2-36.93-16.2-80.81,9.27-42.75,19.88-113.56,22.65-113.25,8.45.69,21,80.31,16.65,123.16C1099.23,385.2,1088.31,445.33,1077.45,443Zm-14-7c-1.31,3.1-4.92,3.78-6.38-.12-2.18-15.75-1.94-42.16,0-72C1063.33,393.29,1065.22,419.66,1063.44,436Zm-20.82,6.89c-12.19,3.47-25.71-53.13-29.16-70.84-8.69-45.15-1.91-117,6.46-118.39,6.12-2.68,24.77,105.1,31.84,108.4C1027,420.87,1058.8,431.31,1042.62,442.92ZM1017,462.53c-36-24.16-121.07-135.75-116.93-140.68,11-13.09,91.75,64.31,93.54,65.88A142.9,142.9,0,0,0,1017,462.53Zm87.72-3.41c14.29-17.37,17.63-48.39,17.44-64.41,19.86-17,101.1-83.14,109.9-72.64C1235.17,325.82,1146.55,437.92,1104.67,459.12Z" transform="translate(-484.43 -241.21)"/><path id="path26" class="cls-1" d="M1027.68,397.87c-.66-16.85,5.61-37.95,23.62-40.23s38.89,12.82,38.94,32.34-13,32.11-30.62,32.53S1028.31,414.66,1027.68,397.87Zm41.51-19.32c-2.17-3.1-3.94-7.67-1.66-9.69s7.11-1,9.52,2.65,2.16,7.16-.29,8.8S1071.36,381.65,1069.19,378.55Z" transform="translate(-484.43 -241.21)"/></g><path id="path30" class="cls-2" d="M1513.56,790.29l10.23-10.23h49.34c5.22,0,18.22-1.3,18.22-8.85V760.49h-75V752c0-16.24,19.9-21.25,32.83-21.25h61L1596.2,743.2h-46.71c-4,0-13,.8-16.67,4.81h73.49v23.2c0,16.32-19.76,21.32-32.82,21.32H1419.88V752c0-16.24,19.9-21.25,32.83-21.25h63.36l-17.29,12.48h-45.72c-5.14,0-18.22,1.29-18.22,8.77v28.09h64.53Zm-122.87-59.57V726l15,8.07v55l-15,8.09v-63.4L1377,743.2h-27.72v45.94l-15,8.09v-54h-27.71l-9.54-6.52-9.53,6.52h-48.73c-4.06,0-13.06.8-16.67,4.81H1277l-17.77,12.48h-38.61v19.57h66.26l14.88,12.47h-96.1V758.88l-15.41-6.68v45l-15-8.09V748.07l-30.5,13.62L1114,748v41.1l-15,8.09V726.6l45.71,20.87,45.48-20.88V748H1206c2.93-13.17,20.49-17.29,32.42-17.29ZM889.39,792V752c0-16.24,19.91-21.25,32.83-21.25h58.71v40.49c0,16.32-19.77,21.32-32.83,21.32H793.31V752c0-16.24,19.91-21.25,32.83-21.25H889.5L872.21,743.2H826.5c-5.15,0-18.23,1.29-18.23,8.77v28.09H872.8Zm121.92-44h73.5v23.2c0,16.32-19.77,21.32-32.84,21.32H989.79l12.5-12.47h49.33c5.22,0,18.22-1.3,18.22-8.85V760.49h-75V752c0-16.24,19.91-21.25,32.83-21.25h61l-13.93,12.48H1028C1023.93,743.2,1014.93,744,1011.31,748Zm-107,32h43.39c5.22,0,18.22-1.3,18.22-8.85v-28H922.57c-5.14,0-18.22,1.29-18.22,8.77Z" transform="translate(-484.43 -241.21)"/><path id="path32" class="cls-2" d="M875,735.42H826.14c-14.77,0-28.12,5.77-28.12,16.55v35.86h77.52l-4.25-3.07H803.57V752c0-8.31,9.22-13.48,22.93-13.48h44.19Zm24.7,49.34V752c0-8.31,9.21-13.48,22.92-13.48h48.1v32.72c0,8.38-9.22,13.55-22.93,13.55Zm76.57-49.34h-54c-14.78,0-28.13,5.77-28.13,16.55v35.86h54c15.6,0,28.12-6.14,28.12-16.62Zm100.1,0h-48.69c-14.77,0-28.12,5.77-28.12,16.55v3.82h75v15.42c0,8.38-9.22,13.55-22.93,13.55h-47.39l-3.07,3.07H1052c15.61,0,28.13-6.14,28.13-16.62V752.72h-75V752c0-8.31,9.22-13.48,22.93-13.48h44.9Zm27.42-1.49v55.41l5.55-3V740.81l35.45,15.73L1180,740.81v45.52l5.55,3V733.93l-40.77,18.71Zm186.83,1.49h-52.11c-15.6,0-28.13,6.07-28.13,16.55v.75h-7.09l7.09,3.07v32h78.47l-3.67-3.07h-69.25v-29h41.84l4.37-3.07h-46.21V752c0-8.31,9.22-13.48,22.93-13.48h47.27Zm13,0,4.49,3.07h31v50.85l5.56-3V738.49h31l4.49-3.07Zm91.82,53.92,5.56-3V736.92l-5.56-3Zm106.13-53.92h-48.81c-14.77,0-28.13,5.77-28.13,16.55v35.86h77.53l-4.26-3.07h-67.71V752c0-8.31,9.21-13.48,22.92-13.48h44.2Zm96.31,0h-48.69c-14.77,0-28.13,5.77-28.13,16.55v3.82h75v15.42c0,8.38-9.22,13.55-22.93,13.55h-47.39l-3.07,3.07h50.82c15.59,0,28.12-6.14,28.12-16.62V752.72h-75V752c0-8.31,9.22-13.48,22.92-13.48h44.91Z" transform="translate(-484.43 -241.21)"/></svg>